<?xml version="1.0" encoding="utf-8"?>
<!-- Generator: Adobe Illustrator 24.3.0, SVG Export Plug-In . SVG Version: 6.00 Build 0)  -->
<svg version="1.1" id="Layer_1" xmlns="http://www.w3.org/2000/svg" xmlns:xlink="http://www.w3.org/1999/xlink" x="0px" y="0px"
	 viewBox="0 0 1000 1000" style="enable-background:new 0 0 1000 1000;" xml:space="preserve">
<style type="text/css">
	.st0{fill:#410293;}
	.st1{fill:url(#SVGID_1_);}
	.st2{fill:url(#SVGID_2_);}
	.st3{fill:url(#SVGID_3_);}
	.st4{fill:url(#SVGID_4_);}
	.st5{fill:url(#SVGID_5_);}
	.st6{fill:url(#SVGID_6_);}
	.st7{fill:url(#SVGID_7_);}
	.st8{fill:url(#SVGID_8_);}
	.st9{fill:url(#SVGID_9_);}
	.st10{fill:url(#SVGID_10_);}
	.st11{fill:url(#SVGID_11_);}
	.st12{fill:url(#SVGID_12_);}
	.st13{fill:url(#SVGID_13_);}
	.st14{fill:url(#SVGID_14_);}
	.st15{fill:url(#SVGID_15_);}
	.st16{fill:url(#SVGID_16_);}
	.st17{fill:url(#SVGID_17_);}
	.st18{fill:url(#SVGID_18_);}
	.st19{fill:#FFFFFF;}
	.st20{fill:url(#SVGID_19_);}
	.st21{fill:url(#SVGID_20_);}
	.st22{fill:url(#SVGID_21_);}
	.st23{fill:url(#SVGID_22_);}
	.st24{fill:url(#SVGID_23_);}
	.st25{fill:url(#SVGID_24_);}
	.st26{fill:url(#SVGID_25_);}
	.st27{fill:url(#SVGID_26_);}
	.st28{fill:url(#SVGID_27_);}
	.st29{fill:url(#SVGID_28_);}
	.st30{fill:url(#SVGID_29_);}
	.st31{fill:url(#SVGID_30_);}
	.st32{fill:url(#SVGID_31_);}
	.st33{fill:url(#SVGID_32_);}
</style>
<rect class="st0" width="1000" height="1000"/>
<g>
	<linearGradient id="SVGID_1_" gradientUnits="userSpaceOnUse" x1="323.5114" y1="605.2784" x2="569.1141" y2="306.7768">
		<stop  offset="0" style="stop-color:#BF00FF"/>
		<stop  offset="0.5161" style="stop-color:#FF5B4D"/>
		<stop  offset="1" style="stop-color:#FFC200"/>
	</linearGradient>
	<path class="st1" d="M292.3,468.8h69.2v221.1H528v-61.5c-18.7-0.5-33.6-15.8-33.6-34.6c0-2.1,0.2-4.1,0.6-6h-56.2V537
		c2,0.4,4.2,0.6,6.3,0.6c19.1,0,34.6-15.5,34.6-34.6c0-17.4-12.8-31.7-29.6-34.2c-1.7-0.2-3.3-0.4-5.1-0.4c-1.7,0-3.3,0.2-5,0.4
		c-0.4,0.1-0.9,0.1-1.4,0.2v-0.2v-50.6H494c-0.3-2-0.6-4-0.6-6c0-19.1,15.4-34.5,34.5-34.6v-67.3v-0.3H292.3V468.8z"/>
	<linearGradient id="SVGID_2_" gradientUnits="userSpaceOnUse" x1="448.8761" y1="708.4266" x2="694.4788" y2="409.9249">
		<stop  offset="0" style="stop-color:#BF00FF"/>
		<stop  offset="0.5161" style="stop-color:#FF5B4D"/>
		<stop  offset="1" style="stop-color:#FFC200"/>
	</linearGradient>
	<path class="st2" d="M701.4,468.4c2.2,0,4.3,0.2,6.3,0.6v-50.8h-56.2c0.3-2,0.6-4,0.6-6c0-19.1-15.5-34.6-34.6-34.6
		c-19.1,0-34.6,15.5-34.6,34.6c0,2.1,0.2,4.1,0.6,6h-21.3h-34V469c2-0.4,4.2-0.6,6.3-0.6c19.1,0,34.6,15.5,34.6,34.6
		c0,19.1-15.5,34.6-34.6,34.6c-2.2,0-4.3-0.2-6.3-0.6v50.8H563h21.3c-0.3,2-0.6,4-0.6,6c0,19.1,15.5,34.6,34.6,34.6
		s34.6-15.5,34.6-34.6c0-2.1-0.2-4.1-0.6-6h55.3V537c-2,0.4-4.2,0.6-6.3,0.6c-19.1,0-34.6-15.5-34.6-34.6
		C666.8,483.9,682.3,468.4,701.4,468.4z"/>
</g>
</svg>
